<svg width="31" height="31" viewBox="0 0 31 31" fill="none" xmlns="http://www.w3.org/2000/svg">
<path fill-rule="evenodd" clip-rule="evenodd" d="M13.044 12.7526H12.9283C9.73329 12.7526 7.14258 11.6019 7.14258 10.1812C7.14258 8.76174 9.73329 7.60974 12.9283 7.60974C16.1233 7.60974 18.714 8.76174 18.714 10.1812C18.714 10.6453 18.4389 11.0811 17.9555 11.4553C15.8507 11.4733 14.0212 11.9901 13.044 12.7526Z" fill="white"/>
<path d="M13.0607 12.7525H12.9283C9.73329 12.7525 7.14258 11.6018 7.14258 10.1812V17.8954C7.14258 19.3097 9.71401 20.4668 12.9283 20.4668C16.1426 20.4668 18.714 19.3097 18.714 17.8954V16.5968C18.5032 16.6071 18.2885 16.6123 18.0712 16.6123C14.8762 16.6123 12.2855 15.4603 12.2855 14.0408C12.2855 13.5715 12.5683 13.1331 13.0607 12.7551V12.7525Z" fill="#FFEFD0"/>
<path d="M17.9426 8.89673C16.4402 7.96957 14.6915 7.52117 12.9283 7.61102C9.72687 7.61102 7.14258 8.76817 7.14258 10.1824C7.14258 10.941 7.88829 11.6224 9.07115 12.111" stroke="#FDC862" stroke-width="1.71429" stroke-linecap="round" stroke-linejoin="round"/>
<path d="M9.07115 19.8253C7.88829 19.3367 7.14258 18.6553 7.14258 17.8967V10.1824" stroke="#FDC862" stroke-width="1.71429" stroke-linecap="round" stroke-linejoin="round"/>
<path d="M9.07115 15.9683C7.88829 15.4797 7.14258 14.7983 7.14258 14.0397" stroke="#FDC862" stroke-width="1.71429" stroke-linecap="round" stroke-linejoin="round"/>
<path d="M18.0709 16.5996C21.2659 16.5996 23.8566 15.4489 23.8566 14.0282C23.8566 12.6074 21.2659 11.4567 18.0709 11.4567C14.8759 11.4567 12.2852 12.6074 12.2852 14.0282C12.2852 15.4489 14.8759 16.5996 18.0709 16.5996Z" fill="white"/>
<path d="M18.0709 16.5995C21.2659 16.5995 23.8566 15.4487 23.8566 14.028V21.7423C23.8566 23.1566 21.2852 24.3137 18.0709 24.3137C14.8566 24.3137 12.2852 23.1566 12.2852 21.7423V14.028C12.2852 15.4487 14.8759 16.5995 18.0709 16.5995Z" fill="#FFEFD0"/>
<path d="M18.0709 16.5996C21.2659 16.5996 23.8566 15.4489 23.8566 14.0282C23.8566 12.6074 21.2659 11.4567 18.0709 11.4567C14.8759 11.4567 12.2852 12.6074 12.2852 14.0282C12.2852 15.4489 14.8759 16.5996 18.0709 16.5996Z" stroke="#FDC862" stroke-width="1.71429" stroke-linecap="round" stroke-linejoin="round"/>
<path d="M12.2852 14.028V21.7423C12.2852 23.1566 14.8566 24.3137 18.0709 24.3137C21.2852 24.3137 23.8566 23.1566 23.8566 21.7423V14.028" stroke="#FDC862" stroke-width="1.71429" stroke-linecap="round" stroke-linejoin="round"/>
<path d="M23.8566 17.8854C23.8566 19.2997 21.2852 20.4569 18.0709 20.4569C14.8566 20.4569 12.2852 19.2997 12.2852 17.8854" stroke="#FDC862" stroke-width="1.71429" stroke-linecap="round" stroke-linejoin="round"/>
</svg>
