 <svg
                            xmlns="http://www.w3.org/2000/svg"
                            width="18"
                            height="17"
                            viewBox="0 0 18 17"
                            fill="none"
                          >
                            <path
                              d="M9.36 0C3.58 0 -0.355998 5.857 1.824 11.21L2.757 13.498C2.79775 13.5978 2.80515 13.7081 2.77812 13.8124C2.75109 13.9167 2.69107 14.0095 2.607 14.077L0.634002 15.66C0.553227 15.7248 0.494566 15.8131 0.466122 15.9127C0.437678 16.0122 0.440854 16.1182 0.475211 16.2159C0.509568 16.3136 0.573411 16.3982 0.657923 16.458C0.742434 16.5179 0.843444 16.55 0.947002 16.55H8.767C9.91379 16.5501 11.0494 16.3244 12.1089 15.8856C13.1684 15.4468 14.1312 14.8037 14.9421 13.9928C15.7531 13.182 16.3963 12.2193 16.8352 11.1598C17.2741 10.1003 17.5 8.96479 17.5 7.818C17.5 3.5 14 0 9.682 0H9.361H9.36Z"
                              fill="#2C2C2C"
                            />
                          </svg>