<svg
                              xmlns="http://www.w3.org/2000/svg"
                              width="24"
                              height="24"
                              viewBox="0 0 24 24"
                              fill="none"
                            >
                              <path
                                d="M14.192 11.192H20.808V6.57701H14.192V11.192ZM17.5 10.058L15.038 8.34601V7.46201L17.5 9.17301L19.962 7.46201V8.34601L17.5 10.058ZM2.615 19.615C2.155 19.615 1.77067 19.461 1.462 19.153C1.154 18.8443 1 18.46 1 18V6.00001C1 5.54001 1.15433 5.15568 1.463 4.84701C1.77167 4.53835 2.15567 4.38435 2.615 4.38501H21.385C21.845 4.38501 22.229 4.53901 22.537 4.84701C22.8457 5.15568 23 5.54001 23 6.00001V18C23 18.46 22.8457 18.8443 22.537 19.153C22.2283 19.4617 21.8443 19.6157 21.385 19.615H2.615ZM14.785 18.615H21.385C21.5383 18.615 21.6793 18.551 21.808 18.423C21.936 18.295 22 18.154 22 18V6.00001C22 5.84668 21.936 5.70568 21.808 5.57701C21.6793 5.44901 21.5383 5.38501 21.385 5.38501H2.615C2.46167 5.38501 2.32067 5.44901 2.192 5.57701C2.064 5.70501 2 5.84601 2 6.00001V18C2 18.1533 2.064 18.2943 2.192 18.423C2.32067 18.551 2.46167 18.615 2.615 18.615H3.215C3.915 17.7117 4.76633 16.986 5.769 16.438C6.77167 15.8893 7.84867 15.615 9 15.615C10.1513 15.615 11.228 15.889 12.23 16.437C13.2333 16.9857 14.085 17.7117 14.785 18.615ZM9 14.231C9.692 14.231 10.282 13.9873 10.77 13.5C11.2567 13.0133 11.5 12.4233 11.5 11.73C11.5 11.038 11.2567 10.4487 10.77 9.96201C10.2813 9.47401 9.69133 9.23001 9 9.23001C8.30867 9.23001 7.71867 9.47335 7.23 9.96001C6.74333 10.4473 6.5 11.0373 6.5 11.73C6.5 12.422 6.74333 13.0117 7.23 13.499C7.718 13.9857 8.308 14.229 9 14.229V14.231ZM4.55 18.615H13.45C12.87 17.9817 12.196 17.49 11.428 17.14C10.6593 16.79 9.85 16.615 9 16.615C8.15 16.615 7.34167 16.79 6.575 17.14C5.80833 17.49 5.13333 17.9817 4.55 18.615ZM9 13.231C8.58867 13.231 8.23567 13.0837 7.941 12.789C7.647 12.4957 7.5 12.143 7.5 11.731C7.5 11.319 7.647 10.966 7.941 10.672C8.23567 10.378 8.58867 10.231 9 10.231C9.41133 10.231 9.76433 10.378 10.059 10.672C10.353 10.966 10.5 11.319 10.5 11.731C10.5 12.1423 10.353 12.495 10.059 12.789C9.76433 13.0837 9.41133 13.231 9 13.231Z"
                                fill="black"
                              />
                            </svg>