 <svg
                                xmlns="http://www.w3.org/2000/svg"
                                width="15"
                                height="22"
                                viewBox="0 0 15 22"
                                fill="none"
                              >
                                <g clip-path="url(#clip0_0_6833)">
                                  <path
                                    d="M9.04526 0.171377L9.04083 0.166689C9.00108 0.12156 8.9534 0.0858157 8.90067 0.0616377C8.84795 0.0374597 8.7913 0.0253557 8.73418 0.0260649C8.71993 0.0253149 8.70555 0.0268149 8.69157 0.0309024H2.14774C0.971438 0.0311649 0.0180895 1.08 0.0175781 2.37404V17.3702C0.0181236 18.6641 0.971438 19.7129 2.14774 19.7133H11.6355C12.8117 19.7129 13.7652 18.6641 13.7656 17.3702V5.55114C13.7648 5.42696 13.7206 5.30788 13.6421 5.21863L9.04526 0.171377ZM9.16015 1.6242L12.3213 5.09207H10.4383C9.73332 5.08971 9.16216 4.46159 9.16018 3.68624L9.16015 1.6242ZM11.6397 18.7715H2.14774C1.44274 18.7692 0.871859 18.141 0.869575 17.3655V2.36921C0.871893 1.59386 1.44274 0.965586 2.14774 0.963411H8.30818V3.68628C8.30856 4.98002 9.26204 6.02882 10.4383 6.02942H12.9136V17.3655C12.9149 18.1406 12.3445 18.7704 11.6397 18.7714V18.7715Z"
                                    fill="black"
                                  />
                                  <path
                                    d="M2.74826 9.0705H7.35369C7.58888 9.0705 7.77983 8.86076 7.77983 8.6019C7.77983 8.34308 7.58888 8.1333 7.35369 8.1333H2.74826C2.51294 8.1333 2.32227 8.34308 2.32227 8.6019C2.32227 8.86076 2.51294 9.0705 2.74826 9.0705ZM11.0388 11.6762H2.74826C2.51294 11.6762 2.32227 11.8859 2.32227 12.1448C2.32227 12.4034 2.51294 12.6134 2.74826 12.6134H11.0388C11.274 12.6134 11.465 12.4034 11.465 12.1448C11.465 11.8859 11.274 11.6762 11.0388 11.6762ZM11.0388 15.2237H2.74826C2.51294 15.2237 2.32227 15.4335 2.32227 15.6923C2.32227 15.9511 2.51294 16.1609 2.74826 16.1609H11.0388C11.274 16.1609 11.465 15.9512 11.465 15.6923C11.465 15.4334 11.274 15.2237 11.0388 15.2237Z"
                                    fill="black"
                                  />
                                </g>
                                <defs>
                                  <clipPath id="clip0_0_6833">
                                    <rect
                                      width="14"
                                      height="21"
                                      fill="white"
                                      transform="translate(0.0830078 0.0258789)"
                                    />
                                  </clipPath>
                                </defs>
                              </svg>    