 <svg
                            xmlns="http://www.w3.org/2000/svg"
                            width="32"
                            height="32"
                            viewBox="0 0 32 32"
                            fill="none"
                          >
                            <path
                              d="M16 8.28613C8.454 8.28613 2.5 16.0001 2.5 16.0001C2.5 16.0001 8.454 23.7151 16 23.7151C21.77 23.7151 29.5 16.0001 29.5 16.0001C29.5 16.0001 21.77 8.28613 16 8.28613ZM16 20.8061C13.35 20.8061 11.193 18.6501 11.193 16.0001C11.193 13.3501 13.35 11.1931 16 11.1931C18.65 11.1931 20.807 13.3501 20.807 16.0001C20.807 18.6501 18.65 20.8061 16 20.8061ZM16 13.1941C15.6271 13.1871 15.2566 13.2545 14.91 13.3923C14.5635 13.5301 14.2479 13.7356 13.9817 13.9969C13.7155 14.2581 13.5041 14.5697 13.3597 14.9136C13.2154 15.2575 13.141 15.6267 13.141 15.9996C13.141 16.3726 13.2154 16.7418 13.3597 17.0857C13.5041 17.4295 13.7155 17.7412 13.9817 18.0024C14.2479 18.2636 14.5635 18.4692 14.91 18.607C15.2566 18.7448 15.6271 18.8122 16 18.8051C16.7349 18.7913 17.435 18.4896 17.9498 17.965C18.4646 17.4403 18.753 16.7347 18.753 15.9996C18.753 15.2646 18.4646 14.5589 17.9498 14.0343C17.435 13.5097 16.7349 13.208 16 13.1941Z"
                              fill="#2C2C2C"
                            />
                          </svg>