 <svg
                              xmlns="http://www.w3.org/2000/svg"
                              width="17"
                              height="16"
                              viewBox="0 0 17 16"
                              fill="none"
                            >
                              <path
                                d="M15.012 4.52776H13.335V1.40651C13.335 0.734883 12.7886 0.188477 12.1169 0.188477H1.30104C0.629414 0.188477 0.0830078 0.734883 0.0830078 1.40651V9.57388C0.0830078 10.2455 0.629414 10.7919 1.30104 10.7919H2.02035V12.6648C2.02034 12.7304 2.03327 12.7955 2.05839 12.8561C2.08351 12.9168 2.12033 12.9719 2.16676 13.0183C2.21318 13.0648 2.2683 13.1016 2.32896 13.1267C2.38962 13.1519 2.45463 13.1648 2.52029 13.1648C2.6286 13.1648 2.73613 13.1296 2.82526 13.0611L5.33982 11.1264V12.0938C5.33982 12.6844 5.82029 13.1648 6.41082 13.1648H11.4197L13.7375 14.9481C13.8115 15.005 13.9 15.0401 13.9929 15.0494C14.0858 15.0586 14.1795 15.0416 14.2633 15.0004C14.347 14.9591 14.4176 14.8953 14.4669 14.816C14.5163 14.7367 14.5424 14.6452 14.5424 14.5518V13.1648H15.012C15.6026 13.1648 16.083 12.6844 16.083 12.0938V5.59882C16.083 5.00823 15.6026 4.52776 15.012 4.52776ZM3.02032 11.6492V10.2919C3.02032 10.0158 2.79648 9.79188 2.52032 9.79188H1.30104C1.18285 9.79188 1.08301 9.69204 1.08301 9.57385V1.40651C1.08301 1.28832 1.18282 1.18848 1.30104 1.18848H12.1169C12.2351 1.18848 12.335 1.28832 12.335 1.40651V9.57388C12.335 9.69207 12.2352 9.79191 12.1169 9.79191H5.60451C5.49422 9.79192 5.38702 9.82839 5.2996 9.89563L3.02032 11.6492ZM15.083 12.0938C15.083 12.1316 15.0498 12.1648 15.012 12.1648H14.0424C13.7662 12.1648 13.5424 12.3887 13.5424 12.6648V13.5363L11.8946 12.2685C11.8072 12.2013 11.7 12.1648 11.5897 12.1648H6.41079C6.37295 12.1648 6.33979 12.1316 6.33979 12.0938V10.7919H12.1169C12.7885 10.7919 13.335 10.2455 13.335 9.57388V5.52776H15.012C15.0499 5.52776 15.083 5.56095 15.083 5.59876V12.0938ZM5.6037 4.53423H5.60051C5.32438 4.53251 5.10191 4.30726 5.10363 4.03113C5.1077 3.38366 5.39335 2.85876 5.88738 2.59107C6.39951 2.31357 7.06585 2.34995 7.58498 2.68379C8.08404 3.0047 8.34816 3.52913 8.31088 4.12401C8.29095 4.75032 7.88035 5.11704 7.55001 5.4121C7.17104 5.75057 6.93901 5.98288 6.94351 6.4722C6.94604 6.74832 6.72426 6.97423 6.4481 6.97676L6.44345 6.97679C6.16941 6.97679 5.94607 6.75598 5.94357 6.48138C5.9347 5.51407 6.48329 5.02407 6.88388 4.66629C7.18429 4.39798 7.3071 4.27057 7.31151 4.08851C7.3117 4.0811 7.31204 4.07366 7.31254 4.06626C7.33263 3.77438 7.17766 3.61076 7.04413 3.52488C6.83382 3.38963 6.55404 3.3672 6.36379 3.47029C6.19291 3.56288 6.10535 3.75366 6.10363 4.03735C6.10188 4.31241 5.87838 4.53423 5.6037 4.53423ZM6.9692 8.25838C6.9692 8.53451 6.74535 8.75838 6.4692 8.75838H6.41782C6.14166 8.75838 5.91782 8.53451 5.91782 8.25838C5.91782 7.98226 6.14166 7.75838 6.41782 7.75838H6.4692C6.74535 7.75838 6.9692 7.98226 6.9692 8.25838Z"
                                fill="black"
                              />
                            </svg>