<svg
                              xmlns="http://www.w3.org/2000/svg"
                              width="17"
                              height="16"
                              viewBox="0 0 17 16"
                              fill="none"
                            >
                              <g clip-path="url(#clip0_0_6508)">
                                <path
                                  d="M6.25061 5.02592H1.25061C0.607297 5.02592 0.0839844 4.53531 0.0839844 3.93209V1.11959C0.0839844 0.516484 0.607297 0.0258789 1.25061 0.0258789H6.25061C6.89405 0.0258789 7.41736 0.516484 7.41736 1.11959V3.93209C7.41736 4.53531 6.89405 5.02592 6.25061 5.02592ZM1.25061 0.963379C1.20643 0.96341 1.16407 0.979878 1.13282 1.00917C1.10158 1.03845 1.08402 1.07817 1.08398 1.11959V3.93209C1.08399 3.97353 1.10155 4.01327 1.13279 4.04258C1.16403 4.07189 1.20641 4.08838 1.25061 4.08842H6.25061C6.29483 4.0884 6.33723 4.07193 6.3685 4.04261C6.39977 4.0133 6.41734 3.97355 6.41736 3.93209V1.11959C6.41732 1.07815 6.39973 1.03842 6.36847 1.00913C6.3372 0.979843 6.29481 0.963387 6.25061 0.963379H1.25061ZM6.25061 15.0259H1.25061C0.607297 15.0259 0.0839844 14.5353 0.0839844 13.9322V7.36967C0.0839844 6.76645 0.607297 6.27584 1.25061 6.27584H6.25061C6.89405 6.27584 7.41736 6.76645 7.41736 7.36967V13.9322C7.41736 14.5353 6.89405 15.0259 6.25061 15.0259ZM1.25061 7.21334C1.20641 7.21338 1.16403 7.22987 1.13279 7.25918C1.10155 7.28849 1.08399 7.32823 1.08398 7.36967V13.9322C1.08402 13.9736 1.10158 14.0133 1.13282 14.0426C1.16407 14.0719 1.20643 14.0883 1.25061 14.0884H6.25061C6.29481 14.0884 6.3372 14.0719 6.36847 14.0426C6.39973 14.0133 6.41732 13.9736 6.41736 13.9322V7.36967C6.41734 7.32821 6.39977 7.28846 6.3685 7.25914C6.33723 7.22983 6.29483 7.21336 6.25061 7.21334H1.25061ZM14.9174 15.0259H9.91736C9.27392 15.0259 8.75061 14.5353 8.75061 13.9322V11.1197C8.75061 10.5164 9.27392 10.0258 9.91736 10.0258H14.9174C15.5607 10.0258 16.084 10.5164 16.084 11.1197V13.9322C16.084 14.5353 15.5607 15.0259 14.9174 15.0259ZM9.91736 10.9633C9.87314 10.9634 9.83074 10.9798 9.79947 11.0091C9.7682 11.0385 9.75063 11.0782 9.75061 11.1197V13.9322C9.75065 13.9736 9.76824 14.0133 9.7995 14.0426C9.83077 14.0719 9.87316 14.0884 9.91736 14.0884H14.9174C14.9615 14.0883 15.0039 14.0719 15.0351 14.0426C15.0664 14.0133 15.084 13.9736 15.084 13.9322V11.1197C15.084 11.0782 15.0664 11.0385 15.0352 11.0092C15.0039 10.9799 14.9616 10.9634 14.9174 10.9633H9.91736ZM14.9174 8.77592H9.91736C9.27392 8.77592 8.75061 8.28531 8.75061 7.68209V1.11959C8.75061 0.516484 9.27392 0.0258789 9.91736 0.0258789H14.9174C15.5607 0.0258789 16.084 0.516484 16.084 1.11959V7.68209C16.084 8.28531 15.5607 8.77592 14.9174 8.77592ZM9.91736 0.963379C9.87316 0.963387 9.83077 0.979843 9.7995 1.00913C9.76824 1.03842 9.75065 1.07815 9.75061 1.11959V7.68209C9.75063 7.72355 9.7682 7.7633 9.79947 7.79261C9.83074 7.82193 9.87314 7.8384 9.91736 7.83842H14.9174C14.9616 7.83838 15.0039 7.82189 15.0352 7.79258C15.0664 7.76327 15.084 7.72353 15.084 7.68209V1.11959C15.084 1.07817 15.0664 1.03845 15.0351 1.00917C15.0039 0.979878 14.9615 0.96341 14.9174 0.963379H9.91736Z"
                                  fill="black"
                                />
                              </g>
                              <defs>
                                <clipPath id="clip0_0_6508">
                                  <rect
                                    width="16"
                                    height="15"
                                    fill="white"
                                    transform="translate(0.0839844 0.0258789)"
                                  />
                                </clipPath>
                              </defs>
                            </svg>