<svg
                              xmlns="http://www.w3.org/2000/svg"
                              width="26"
                              height="27"
                              viewBox="0 0 26 27"
                              fill="none"
                            >
                              <path
                                d="M11.6248 4.49749C11.6248 4.3819 11.6707 4.27104 11.7525 4.1893C11.8342 4.10757 11.9451 4.06165 12.0606 4.06165H18.877C18.9926 4.06165 19.1035 4.10757 19.1852 4.1893C19.2669 4.27104 19.3129 4.3819 19.3129 4.49749C19.3129 4.61308 19.2669 4.72394 19.1852 4.80568C19.1035 4.88741 18.9926 4.93333 18.877 4.93333H12.0606C11.9451 4.93333 11.8342 4.88741 11.7525 4.80568C11.6707 4.72394 11.6248 4.61308 11.6248 4.49749ZM8.03165 5.42698C8.11675 5.51208 8.22827 5.55463 8.33985 5.55463C8.45142 5.55463 8.56294 5.51208 8.64804 5.42698L9.98407 4.09096C10.0253 4.05065 10.0581 4.00258 10.0806 3.9495C10.1031 3.89643 10.1149 3.83942 10.1152 3.78178C10.1155 3.72413 10.1044 3.667 10.0825 3.61368C10.0606 3.56036 10.0283 3.51191 9.98753 3.47115C9.94677 3.43039 9.89833 3.39812 9.84501 3.37621C9.79169 3.3543 9.73455 3.34318 9.67691 3.3435C9.61926 3.34383 9.56225 3.35558 9.50918 3.37809C9.45611 3.40059 9.40803 3.4334 9.36773 3.47462L8.3399 4.5025L7.98006 4.14266C7.93975 4.10144 7.89168 4.06863 7.8386 4.04613C7.78553 4.02362 7.72853 4.01187 7.67088 4.01154C7.61323 4.01122 7.5561 4.02234 7.50278 4.04425C7.44946 4.06616 7.40101 4.09843 7.36025 4.13919C7.31949 4.17995 7.28722 4.2284 7.26531 4.28172C7.2434 4.33504 7.23228 4.39217 7.2326 4.44982C7.23293 4.50746 7.24468 4.56447 7.26719 4.61754C7.28969 4.67061 7.3225 4.71869 7.36372 4.759L8.03165 5.42698ZM12.0606 9.58199H18.877C18.9926 9.58199 19.1035 9.53607 19.1852 9.45433C19.2669 9.37259 19.3129 9.26174 19.3129 9.14614C19.3129 9.03055 19.2669 8.91969 19.1852 8.83796C19.1035 8.75622 18.9926 8.7103 18.877 8.7103H12.0606C11.9451 8.7103 11.8342 8.75622 11.7525 8.83796C11.6707 8.91969 11.6248 9.03055 11.6248 9.14614C11.6248 9.26174 11.6707 9.37259 11.7525 9.45433C11.8342 9.53607 11.9451 9.58199 12.0606 9.58199ZM8.03165 10.1223C8.11675 10.2074 8.22827 10.25 8.33985 10.25C8.45142 10.25 8.56294 10.2074 8.64804 10.1223L9.98407 8.7863C10.0253 8.746 10.0581 8.69792 10.0806 8.64485C10.1031 8.59178 10.1149 8.53477 10.1152 8.47712C10.1155 8.41948 10.1044 8.36234 10.0825 8.30902C10.0606 8.2557 10.0283 8.20726 9.98753 8.16649C9.94677 8.12573 9.89833 8.09346 9.84501 8.07155C9.79169 8.04964 9.73455 8.03852 9.67691 8.03885C9.61926 8.03917 9.56225 8.05092 9.50918 8.07343C9.45611 8.09594 9.40803 8.12875 9.36773 8.16996L8.3399 9.19785L7.98006 8.838C7.93975 8.79679 7.89168 8.76398 7.8386 8.74147C7.78553 8.71896 7.72853 8.70721 7.67088 8.70688C7.61323 8.70656 7.5561 8.71768 7.50278 8.73959C7.44946 8.7615 7.40101 8.79377 7.36025 8.83453C7.31949 8.8753 7.28722 8.92374 7.26531 8.97706C7.2434 9.03038 7.23228 9.08751 7.2326 9.14516C7.23293 9.20281 7.24468 9.25981 7.26719 9.31289C7.28969 9.36596 7.3225 9.41404 7.36372 9.45434L8.03165 10.1223ZM25.3184 17.854L23.391 18.9667C23.1946 19.0807 22.9715 19.1408 22.7443 19.1409C22.6308 19.1409 22.5166 19.126 22.4039 19.0957C22.0675 19.0056 21.7868 18.7906 21.6135 18.4905L21.5607 18.3992L20.5857 18.897C20.8773 19.3592 20.8351 19.9292 20.5789 20.3696C20.4501 20.591 20.2661 20.7817 20.0456 20.9134C20.1735 21.1227 20.2414 21.3627 20.2405 21.6183C20.2385 22.148 19.9403 22.6603 19.4806 22.9234C19.2251 23.0696 18.9427 23.1263 18.6599 23.0936C18.6454 23.3313 18.5722 23.5648 18.4526 23.7701C18.1997 24.2043 17.7341 24.5184 17.1986 24.5047C17.1929 24.7613 17.118 25.0154 16.9891 25.2367C16.742 25.6607 16.2926 25.9718 15.7724 25.9718C15.5355 25.9718 15.2839 25.9072 15.03 25.7594L13.879 25.0891L13.6551 25.4075C13.3745 25.8063 12.9635 26.0278 12.5129 26.0278C12.4716 26.0278 12.43 26.026 12.3881 26.0222C11.8714 25.9759 11.3955 25.6477 11.1668 25.1827C10.6814 25.4336 10.1167 25.3423 9.69968 25.0489C9.43038 24.8595 9.21949 24.5837 9.12328 24.2662C8.7229 24.3538 8.30351 24.248 7.97537 24.0172C7.56666 23.7297 7.29262 23.2432 7.34966 22.714C7.09268 22.687 6.8442 22.5903 6.63336 22.442C6.04911 22.0309 5.74015 21.2131 6.28021 20.4453L6.31726 20.3927L4.87238 18.5883C4.69772 18.8372 4.44351 19.0158 4.14502 19.0958C4.034 19.1257 3.91954 19.1408 3.80457 19.1409C3.57935 19.1409 3.35745 19.0821 3.15778 18.9668L1.23048 17.854C0.609072 17.4953 0.395399 16.6979 0.754153 16.0764L4.13674 10.2176C4.23707 10.0435 4.37658 9.89522 4.54419 9.78444V1.1209C4.54419 1.00531 4.59011 0.894451 4.67185 0.812714C4.75359 0.730978 4.86444 0.685059 4.98004 0.685059H21.5688C21.6844 0.685059 21.7952 0.730978 21.877 0.812714C21.9587 0.894451 22.0046 1.00531 22.0046 1.1209V9.78444C22.1723 9.89517 22.3118 10.0435 22.4121 10.2176L25.7947 16.0764C26.1534 16.6979 25.9398 17.4953 25.3184 17.854ZM5.41588 1.55675V9.57605C5.59158 9.59647 5.76122 9.65271 5.91432 9.74129L7.84168 10.8541C8.14187 11.0274 8.35685 11.308 8.44696 11.6445C8.50265 11.8503 8.5068 12.0666 8.45905 12.2744L10.8755 13.1376C11.8947 12.2266 12.6465 11.9029 14.1974 12.2443C15.6513 12.5644 16.8709 12.5673 18.0843 12.248C18.0426 12.0482 18.0486 11.8414 18.1018 11.6444C18.1919 11.308 18.4069 11.0272 18.7071 10.854L20.6344 9.74123C20.7876 9.65267 20.9572 9.59645 21.1329 9.57605V1.55675H5.41588ZM4.18048 18.0546L7.56307 12.1958C7.61994 12.0972 7.63487 11.9816 7.60501 11.8701C7.57516 11.7586 7.50439 11.6659 7.40583 11.609L5.47853 10.4962C5.37984 10.4393 5.26261 10.4239 5.15257 10.4534C5.04254 10.4829 4.9487 10.5548 4.89167 10.6535L1.50909 16.5123C1.39065 16.7175 1.4612 16.9807 1.66632 17.0991L3.59367 18.2119C3.64249 18.2401 3.69643 18.2583 3.75234 18.2655C3.80826 18.2727 3.86505 18.2687 3.91941 18.2538C4.03088 18.2239 4.12361 18.1532 4.18048 18.0546ZM7.91899 21.5984L8.92066 20.1743L8.92083 20.174C9.22521 19.7398 8.85529 19.447 8.77803 19.3927C8.70073 19.3383 8.29969 19.0893 7.99411 19.5237L6.99314 20.9467C6.68745 21.3813 7.0576 21.6746 7.1349 21.7289C7.21216 21.7834 7.61297 22.0325 7.91871 21.5987L7.91899 21.5984ZM9.3461 23.0524L10.7454 21.0631L10.9581 20.7606C11.2638 20.326 10.8936 20.0328 10.8163 19.9784C10.7389 19.924 10.3378 19.6747 10.0321 20.1092L9.63398 20.6752L9.63381 20.6755L9.63365 20.6758L8.63197 22.0998L8.33511 22.5219C8.02942 22.9566 8.39961 23.2498 8.47692 23.3042C8.55423 23.3585 8.95542 23.6077 9.26111 23.1733L9.3461 23.0524ZM11.3021 23.7545L11.3031 23.7532L11.805 23.0396L12.384 22.2165C12.6896 21.782 12.3195 21.4887 12.2423 21.4343C12.1651 21.3801 11.7644 21.1309 11.4588 21.564L11.4584 21.5647L10.0591 23.5539L10.0589 23.5544C9.75394 23.9886 10.1239 24.2817 10.2012 24.3361C10.2785 24.3904 10.6797 24.6397 10.9853 24.2051L11.3021 23.7545ZM13.302 23.4103C13.2247 23.3558 12.8238 23.1067 12.5182 23.5408L12.518 23.5411L12.0161 24.2548C11.8885 24.4362 11.8641 24.6152 11.9436 24.7867C12.0349 24.9836 12.2497 25.1347 12.4659 25.1541C12.6542 25.171 12.8144 25.0875 12.9421 24.9061L13.444 24.1926C13.7495 23.758 13.3793 23.4646 13.302 23.4103ZM19.6276 19.1614L14.2381 16.0417C13.7536 15.7619 13.2746 15.9636 12.5333 16.3154C12.4972 16.3325 12.4613 16.3496 12.4252 16.3666C12.3711 16.4752 12.3165 16.5919 12.2597 16.7133C11.9798 17.3113 11.6625 17.9891 11.1137 18.2854C10.4677 18.634 9.89123 18.6872 9.49047 18.4351C9.306 18.319 9.00102 18.0305 9.03082 17.4019L9.14621 14.9726C9.15147 14.8619 9.19873 14.7573 9.27838 14.6802C9.50507 14.4607 9.70845 14.2603 9.90518 14.0665C9.99513 13.9779 10.0817 13.8926 10.1662 13.8098L8.07001 13.061L5.34402 17.7826L6.83946 19.6501L7.28113 19.0221C7.82098 18.2545 8.69495 18.2688 9.27925 18.6793C9.46944 18.813 9.63049 18.9897 9.74261 19.1938C10.2504 18.8681 10.8694 18.9499 11.3178 19.2653C11.694 19.5299 11.9561 19.9633 11.951 20.4433C12.235 20.4575 12.5122 20.5582 12.744 20.7213C13.261 21.0852 13.5623 21.7676 13.2504 22.4519C13.4491 22.4965 13.6371 22.5798 13.8036 22.6972C14.3013 23.0473 14.5988 23.6924 14.3427 24.3504L15.4687 25.0061C15.9279 25.2733 16.1883 24.8796 16.2359 24.7979C16.2834 24.7163 16.4973 24.2958 16.0393 24.0282L16.0387 24.0279L16.0385 24.0277H16.0385L14.5876 23.183C14.5375 23.1545 14.4936 23.1163 14.4584 23.0708C14.4232 23.0252 14.3974 22.9731 14.3824 22.9175C14.3675 22.8619 14.3637 22.8039 14.3712 22.7468C14.3788 22.6897 14.3977 22.6347 14.4266 22.5849C14.4556 22.5352 14.4942 22.4917 14.5401 22.4569C14.586 22.4221 14.6383 22.3968 14.694 22.3823C14.7498 22.3679 14.8078 22.3647 14.8649 22.3728C14.9219 22.3809 14.9767 22.4003 15.0262 22.4297L16.4771 23.2746L16.4773 23.2747L16.4775 23.2748L16.4785 23.2753L16.9322 23.5396C17.3913 23.8068 17.6518 23.413 17.6994 23.3314C17.7469 23.2498 17.9608 22.8293 17.5027 22.5617L17.5021 22.5614L17.502 22.5613L17.5017 22.5611L15.723 21.5254C15.6729 21.4969 15.6291 21.4588 15.5938 21.4132C15.5586 21.3676 15.5328 21.3155 15.5178 21.2599C15.5029 21.2043 15.4991 21.1463 15.5067 21.0892C15.5143 21.0322 15.5331 20.9771 15.5621 20.9274C15.591 20.8776 15.6296 20.8341 15.6755 20.7993C15.7214 20.7645 15.7737 20.7392 15.8295 20.7248C15.8852 20.7103 15.9433 20.7071 16.0003 20.7152C16.0573 20.7234 16.1121 20.7427 16.1616 20.7722L17.9408 21.8081L17.9409 21.8082C17.9412 21.8083 17.9415 21.8085 17.9419 21.8088L18.5113 22.1403C18.7031 22.252 18.8834 22.2609 19.0475 22.167C19.2359 22.0592 19.3681 21.8322 19.3688 21.6151C19.3695 21.426 19.2727 21.2735 19.0809 21.1619L18.621 20.8941L18.6206 20.8939L18.6203 20.8937L18.62 20.8935L16.8585 19.8678C16.8084 19.8393 16.7645 19.8012 16.7293 19.7556C16.6941 19.7101 16.6683 19.658 16.6533 19.6024C16.6384 19.5468 16.6346 19.4887 16.6422 19.4317C16.6497 19.3746 16.6686 19.3196 16.6976 19.2698C16.7265 19.22 16.7651 19.1765 16.811 19.1417C16.8569 19.107 16.9092 19.0816 16.965 19.0672C17.0207 19.0528 17.0788 19.0495 17.1358 19.0577C17.1928 19.0658 17.2476 19.0851 17.2971 19.1146L19.0587 20.1402C19.5179 20.407 19.778 20.0131 19.8255 19.9314C19.8729 19.8497 20.0866 19.4287 19.6276 19.1614ZM21.1243 17.6432L18.4702 13.0462C16.6397 13.5629 15.0605 13.3269 14.0101 13.0956C12.4755 12.758 12.0995 13.1284 10.517 14.6876C10.3481 14.8543 10.1787 15.0205 10.0087 15.1861L9.90153 17.4434C9.8945 17.5914 9.92316 17.6776 9.9547 17.6974C10.0284 17.7438 10.296 17.7363 10.6996 17.5184C10.9951 17.3589 11.2475 16.8197 11.4702 16.3438C11.551 16.1711 11.6347 15.9926 11.7207 15.8305C11.7655 15.7463 11.8366 15.6791 11.9231 15.6391C12.0021 15.6025 12.0809 15.5655 12.1594 15.528C12.9136 15.1699 13.7684 14.7641 14.6743 15.2871L19.86 18.2887L21.1243 17.6432ZM25.0397 16.5122L21.6572 10.6535C21.5388 10.4483 21.2755 10.3778 21.0703 10.4962L19.143 11.609C19.0444 11.6659 18.9737 11.7586 18.9438 11.8701C18.914 11.9816 18.9288 12.0972 18.9858 12.1958L22.3683 18.0547C22.4252 18.1532 22.518 18.2239 22.6295 18.2538C22.6838 18.2688 22.7406 18.2728 22.7965 18.2656C22.8524 18.2584 22.9064 18.2401 22.9552 18.2119L24.8826 17.0991C25.0877 16.9807 25.1582 16.7174 25.0397 16.5122Z"
                                fill="black"
                              />
                            </svg>