   <svg
                              xmlns="http://www.w3.org/2000/svg"
                              width="17"
                              height="17"
                              viewBox="0 0 17 17"
                              fill="none"
                            >
                              <path
                                d="M11.8039 16.9009H1.38533C1.04006 16.9005 0.709033 16.7632 0.464885 16.519C0.220737 16.2749 0.0834017 15.9438 0.0830078 15.5986V2.2032C0.0834017 1.85793 0.220737 1.5269 0.464885 1.28276C0.709033 1.03861 1.04006 0.901273 1.38533 0.900879H11.8039C12.1492 0.901273 12.4802 1.03861 12.7244 1.28276C12.9685 1.5269 13.1059 1.85793 13.1063 2.2032V10.3893C13.1063 10.5373 13.0475 10.6792 12.9428 10.7839C12.8381 10.8886 12.6962 10.9474 12.5481 10.9474C12.4001 10.9474 12.2581 10.8886 12.1535 10.7839C12.0488 10.6792 11.99 10.5373 11.99 10.3893V2.2032C11.9894 2.15404 11.9696 2.10706 11.9349 2.07229C11.9001 2.03753 11.8531 2.01774 11.8039 2.01716H1.38533C1.33617 2.01774 1.28919 2.03753 1.25442 2.07229C1.21965 2.10706 1.19987 2.15404 1.19929 2.2032V15.5986C1.19987 15.6477 1.21965 15.6947 1.25442 15.7295C1.28919 15.7642 1.33617 15.784 1.38533 15.7846H11.8039C11.9438 15.7292 12.0997 15.7304 12.2387 15.7881C12.3776 15.8457 12.4886 15.9553 12.5481 16.0934C12.5771 16.16 12.5925 16.2316 12.5935 16.3041C12.5944 16.3766 12.5809 16.4486 12.5538 16.5159C12.5266 16.5832 12.4864 16.6444 12.4353 16.6959C12.3842 16.7474 12.3234 16.7883 12.2564 16.816C12.1124 16.8731 11.9588 16.9019 11.8039 16.9009Z"
                                fill="black"
                              />
                              <path
                                d="M9.94331 4.99372H3.24564C3.09761 4.99372 2.95565 4.93492 2.85098 4.83025C2.7463 4.72557 2.6875 4.58361 2.6875 4.43558C2.6875 4.28755 2.7463 4.14559 2.85098 4.04092C2.95565 3.93625 3.09761 3.87744 3.24564 3.87744H9.94331C10.0913 3.87744 10.2333 3.93625 10.338 4.04092C10.4426 4.14559 10.5015 4.28755 10.5015 4.43558C10.5015 4.58361 10.4426 4.72557 10.338 4.83025C10.2333 4.93492 10.0913 4.99372 9.94331 4.99372ZM9.94331 7.97047H3.24564C3.09761 7.97047 2.95565 7.91166 2.85098 7.80699C2.7463 7.70232 2.6875 7.56035 2.6875 7.41233C2.6875 7.2643 2.7463 7.12233 2.85098 7.01766C2.95565 6.91299 3.09761 6.85419 3.24564 6.85419H9.94331C10.0913 6.85419 10.2333 6.91299 10.338 7.01766C10.4426 7.12233 10.5015 7.2643 10.5015 7.41233C10.5015 7.56035 10.4426 7.70232 10.338 7.80699C10.2333 7.91166 10.0913 7.97047 9.94331 7.97047ZM8.08285 10.9472H3.24564C3.09761 10.9472 2.95565 10.8884 2.85098 10.7837C2.7463 10.6791 2.6875 10.5371 2.6875 10.3891C2.6875 10.241 2.7463 10.0991 2.85098 9.99441C2.95565 9.88973 3.09761 9.83093 3.24564 9.83093H8.08285C8.23088 9.83093 8.37284 9.88973 8.47751 9.99441C8.58218 10.0991 8.64099 10.241 8.64099 10.3891C8.64099 10.5371 8.58218 10.6791 8.47751 10.7837C8.37284 10.8884 8.23088 10.9472 8.08285 10.9472ZM7.33866 13.924H3.24564C3.09761 13.924 2.95565 13.8652 2.85098 13.7605C2.7463 13.6558 2.6875 13.5138 2.6875 13.3658C2.6875 13.2178 2.7463 13.0758 2.85098 12.9711C2.95565 12.8665 3.09761 12.8077 3.24564 12.8077H7.33866C7.48669 12.8077 7.62866 12.8665 7.73333 12.9711C7.838 13.0758 7.8968 13.2178 7.8968 13.3658C7.8968 13.5138 7.838 13.6558 7.73333 13.7605C7.62866 13.8652 7.48669 13.924 7.33866 13.924ZM12.548 16.9007C11.8488 16.9007 11.1654 16.6934 10.5841 16.305C10.0028 15.9165 9.54971 15.3645 9.28216 14.7186C9.01461 14.0726 8.94461 13.3619 9.081 12.6762C9.2174 11.9905 9.55406 11.3606 10.0484 10.8663C10.5428 10.3719 11.1726 10.0352 11.8583 9.89885C12.544 9.76246 13.2548 9.83246 13.9007 10.1C14.5466 10.3676 15.0987 10.8206 15.4871 11.4019C15.8755 11.9832 16.0828 12.6667 16.0828 13.3658C16.0819 14.303 15.7091 15.2016 15.0464 15.8643C14.3837 16.527 13.4852 16.8997 12.548 16.9007ZM12.548 10.9472C12.0696 10.9472 11.602 11.0891 11.2043 11.3548C10.8065 11.6206 10.4965 11.9983 10.3135 12.4403C10.1304 12.8822 10.0825 13.3685 10.1758 13.8377C10.2692 14.3068 10.4995 14.7378 10.8378 15.076C11.176 15.4143 11.607 15.6446 12.0761 15.7379C12.5453 15.8313 13.0316 15.7834 13.4735 15.6003C13.9155 15.4173 14.2932 15.1073 14.559 14.7095C14.8247 14.3118 14.9666 13.8442 14.9666 13.3658C14.9658 12.7246 14.7107 12.1099 14.2573 11.6565C13.8039 11.2031 13.1892 10.948 12.548 10.9472Z"
                                fill="black"
                              />
                              <path
                                d="M12.1766 14.6684C12.1033 14.6684 12.0308 14.6539 11.9631 14.6258C11.8954 14.5977 11.8339 14.5566 11.7822 14.5046L11.038 13.7605C10.9832 13.7094 10.9392 13.6477 10.9087 13.5793C10.8782 13.5108 10.8618 13.4369 10.8604 13.362C10.8591 13.287 10.8729 13.2126 10.901 13.1431C10.929 13.0736 10.9708 13.0105 11.0238 12.9575C11.0768 12.9045 11.14 12.8627 11.2095 12.8346C11.279 12.8065 11.3534 12.7927 11.4283 12.7941C11.5033 12.7954 11.5772 12.8118 11.6457 12.8423C11.7141 12.8728 11.7757 12.9168 11.8268 12.9716L12.1766 13.3214L13.2706 12.2274C13.3764 12.1288 13.5163 12.0752 13.6609 12.0777C13.8055 12.0803 13.9435 12.1389 14.0457 12.2411C14.148 12.3434 14.2066 12.4813 14.2091 12.6259C14.2117 12.7705 14.158 12.9105 14.0594 13.0163L12.571 14.5046C12.5193 14.5566 12.4578 14.5977 12.3901 14.6258C12.3224 14.6539 12.2499 14.6684 12.1766 14.6684Z"
                                fill="black"
                              />
                            </svg>