 <svg
                              xmlns="http://www.w3.org/2000/svg"
                              width="256"
                              height="256"
                              viewBox="0 0 256 256"
                              fill="none"
                            >
                              <path
                                d="M117.25 157.92C127.972 150.782 136.112 140.383 140.467 128.26C144.822 116.138 145.16 102.936 141.431 90.6069C137.702 78.2777 130.105 67.4756 119.762 59.7982C109.42 52.1208 96.8808 47.9756 84 47.9756C71.1192 47.9756 58.5804 52.1208 48.2377 59.7982C37.895 67.4756 30.2976 78.2777 26.5689 90.6069C22.8402 102.936 23.1782 116.138 27.533 128.26C31.8877 140.383 40.028 150.782 50.75 157.92C31.3549 165.068 14.7911 178.296 3.53 195.63C2.93816 196.51 2.52706 197.498 2.32061 198.538C2.11416 199.578 2.11647 200.648 2.32741 201.687C2.53835 202.726 2.95371 203.713 3.54935 204.59C4.14498 205.467 4.90901 206.217 5.79703 206.796C6.68504 207.376 7.67932 207.773 8.72208 207.964C9.76484 208.156 10.8353 208.138 11.8712 207.912C12.907 207.687 13.8877 207.257 14.7562 206.649C15.6246 206.041 16.3636 205.266 16.93 204.37C24.1939 193.198 34.1336 184.017 45.8464 177.662C57.5592 171.306 70.674 167.977 84 167.977C97.326 167.977 110.441 171.306 122.154 177.662C133.866 184.017 143.806 193.198 151.07 204.37C152.243 206.114 154.056 207.326 156.116 207.744C158.176 208.162 160.317 207.753 162.078 206.605C163.838 205.456 165.076 203.661 165.524 201.608C165.972 199.554 165.593 197.407 164.47 195.63C153.209 178.296 136.645 165.068 117.25 157.92ZM40 108C40 99.2976 42.5806 90.7906 47.4153 83.5548C52.2501 76.3191 59.122 70.6795 67.1619 67.3492C75.2019 64.019 84.0488 63.1476 92.584 64.8454C101.119 66.5431 108.959 70.7337 115.113 76.8872C121.266 83.0407 125.457 90.8808 127.155 99.416C128.852 107.951 127.981 116.798 124.651 124.838C121.32 132.878 115.681 139.75 108.445 144.585C101.209 149.419 92.7024 152 84 152C72.3345 151.987 61.1507 147.347 52.9019 139.098C44.6532 130.849 40.0132 119.665 40 108ZM250.14 206.7C248.363 207.859 246.198 208.264 244.123 207.827C242.047 207.39 240.229 206.147 239.07 204.37C231.815 193.191 221.876 184.006 210.161 177.654C198.446 171.301 185.327 167.982 172 168C169.878 168 167.843 167.157 166.343 165.657C164.843 164.157 164 162.122 164 160C164 157.878 164.843 155.843 166.343 154.343C167.843 152.843 169.878 152 172 152C178.48 151.994 184.878 150.557 190.738 147.791C196.598 145.026 201.775 141 205.898 136.002C210.022 131.004 212.991 125.156 214.593 118.878C216.195 112.599 216.39 106.044 215.165 99.6814C213.94 93.3186 211.325 87.3048 207.506 82.0699C203.688 76.8349 198.76 72.508 193.075 69.3983C187.39 66.2885 181.089 64.4727 174.621 64.0806C168.153 63.6885 161.679 64.7297 155.66 67.1299C154.679 67.5542 153.622 67.7774 152.553 67.7864C151.484 67.7954 150.424 67.5901 149.436 67.1825C148.447 66.775 147.551 66.1734 146.799 65.4134C146.047 64.6535 145.455 63.7505 145.058 62.7578C144.661 61.7652 144.467 60.703 144.487 59.6341C144.507 58.5652 144.742 57.5112 145.176 56.5345C145.611 55.5577 146.237 54.6779 147.017 53.9472C147.798 53.2164 148.717 52.6495 149.72 52.2799C163.495 46.7864 178.816 46.5888 192.727 51.725C206.639 56.8612 218.156 66.9675 225.056 80.0941C231.956 93.2207 233.75 108.438 230.093 122.809C226.436 137.181 217.585 149.689 205.25 157.92C224.645 165.068 241.209 178.296 252.47 195.63C253.629 197.407 254.034 199.571 253.597 201.647C253.16 203.723 251.917 205.541 250.14 206.7Z"
                                fill="#313131"
                              />
                            </svg>