    <svg
                            xmlns="http://www.w3.org/2000/svg"
                            width="24"
                            height="24"
                            viewBox="0 0 24 24"
                            fill="none"
                          >
                            <g clip-path="url(#clip0_924_5477)">
                              <path
                                d="M14.1225 19.5L16.0575 17.565L15 16.5L12 19.5L15 22.5L16.065 21.4425L14.1225 19.5Z"
                                fill="#545454"
                              />
                              <path
                                d="M20.3776 19.5L18.4426 21.435L19.5001 22.5L22.5001 19.5L19.5001 16.5L18.4351 17.5575L20.3776 19.5Z"
                                fill="#545454"
                              />
                              <path
                                d="M10.5 20.9998H6V2.99977H12V7.49977C12.0011 7.89724 12.1596 8.27811 12.4406 8.55916C12.7217 8.84022 13.1025 8.99862 13.5 8.99977H18V13.4998H19.5V7.49977C19.5027 7.4012 19.484 7.30321 19.4451 7.21258C19.4063 7.12194 19.3482 7.04081 19.275 6.97477L14.025 1.72477C13.959 1.65152 13.8778 1.59346 13.7872 1.55462C13.6966 1.51577 13.5986 1.49706 13.5 1.49977H6C5.60253 1.50092 5.22166 1.65932 4.94061 1.94038C4.65955 2.22143 4.50115 2.6023 4.5 2.99977V20.9998C4.50115 21.3972 4.65955 21.7781 4.94061 22.0592C5.22166 22.3402 5.60253 22.4986 6 22.4998H10.5V20.9998ZM13.5 3.29977L17.7 7.49977H13.5V3.29977Z"
                                fill="#545454"
                              />
                            </g>
                            <defs>
                              <clipPath id="clip0_924_5477">
                                <rect width="24" height="24" fill="white" />
                              </clipPath>
                            </defs>
                          </svg>