<svg
                              xmlns="http://www.w3.org/2000/svg"
                              width="19"
                              height="19"
                              viewBox="0 0 19 19"
                              fill="none"
                            >
                              <path
                                d="M9.08398 17.9093C8.86076 17.9091 8.64131 17.8518 8.44648 17.7428L5.91898 16.3388C4.66239 15.6402 3.61532 14.6185 2.88612 13.3794C2.15693 12.1403 1.77211 10.7288 1.77148 9.29109V5.39409C1.77145 5.0698 1.89167 4.75703 2.10889 4.51625C2.32612 4.27548 2.62491 4.12381 2.94748 4.09059C3.95311 3.984 4.94282 3.76023 5.89648 3.42384C6.77086 3.11475 7.60964 2.71296 8.39848 2.22534C8.60484 2.09905 8.84206 2.03223 9.08398 2.03223C9.32591 2.03223 9.56313 2.09905 9.76948 2.22534C10.5584 2.71283 11.3972 3.11461 12.2715 3.42384C13.2251 3.76023 14.2149 3.984 15.2205 4.09059C15.5431 4.12381 15.8419 4.27548 16.0591 4.51625C16.2763 4.75703 16.3965 5.0698 16.3965 5.39409V9.29109C16.3959 10.7288 16.011 12.1403 15.2818 13.3794C14.5527 14.6185 13.5056 15.6402 12.249 16.3388L9.72148 17.7436C9.52662 17.8523 9.30715 17.9094 9.08398 17.9093ZM9.08398 3.15684C9.05098 3.15654 9.01854 3.16537 8.99023 3.18234C8.13297 3.71218 7.22155 4.14891 6.27148 4.48509C5.23518 4.85085 4.1596 5.094 3.06673 5.20959C3.02031 5.21353 2.97706 5.23475 2.94553 5.26906C2.91401 5.30336 2.8965 5.34825 2.89648 5.39484V9.29184C2.89689 10.529 3.22792 11.7435 3.85533 12.8098C4.48273 13.876 5.38371 14.7552 6.46498 15.3563L8.99248 16.7603C9.0202 16.7759 9.05145 16.7841 9.08323 16.7841C9.11502 16.7841 9.14627 16.7759 9.17398 16.7603L11.703 15.3563C12.7843 14.7552 13.6852 13.876 14.3126 12.8098C14.94 11.7435 15.2711 10.529 15.2715 9.29184V5.39409C15.2715 5.3475 15.254 5.30261 15.2224 5.26831C15.1909 5.234 15.1477 5.21278 15.1012 5.20884C14.0084 5.09325 12.9328 4.8501 11.8965 4.48434C10.9465 4.14864 10.0351 3.71241 9.17773 3.18309C9.14957 3.16571 9.11708 3.15661 9.08398 3.15684Z"
                                fill="black"
                              />
                              <path
                                d="M8.70881 11.6415C8.57101 11.6417 8.43801 11.5909 8.33531 11.499L6.64781 9.99904C6.54317 9.89823 6.48161 9.76084 6.476 9.61565C6.4704 9.47046 6.5212 9.32874 6.61775 9.22016C6.71431 9.11159 6.84913 9.04458 6.99398 9.03319C7.13883 9.0218 7.28247 9.0669 7.39481 9.15904L8.67281 10.2945L11.1111 7.69429C11.1613 7.63916 11.2219 7.59455 11.2895 7.56308C11.3571 7.5316 11.4303 7.51387 11.5048 7.51094C11.5793 7.508 11.6537 7.5199 11.7235 7.54595C11.7934 7.57201 11.8574 7.6117 11.9118 7.6627C11.9662 7.71371 12.0099 7.77503 12.0403 7.84308C12.0708 7.91113 12.0875 7.98456 12.0893 8.05911C12.0911 8.13365 12.0781 8.20781 12.0511 8.27729C12.024 8.34676 11.9834 8.41016 11.9316 8.46379L9.11906 11.4638C9.06654 11.52 9.00302 11.5648 8.93243 11.5954C8.86185 11.6259 8.78573 11.6417 8.70881 11.6415Z"
                                fill="black"
                              />
                            </svg>