  <svg
                              xmlns="http://www.w3.org/2000/svg"
                              width="24"
                              height="24"
                              viewBox="0 0 24 24"
                              fill="none"
                            >
                              <path
                                d="M12 21.1799C11.8587 21.1799 11.724 21.1659 11.596 21.1379C11.468 21.1099 11.3417 21.0599 11.217 20.9879L4.333 17.1709C4.07967 17.0262 3.87767 16.8319 3.727 16.5879C3.57567 16.3432 3.5 16.0699 3.5 15.7679V8.23187C3.5 7.9292 3.57567 7.65587 3.727 7.41187C3.87833 7.16787 4.08033 6.9732 4.333 6.82787L11.217 3.01087C11.3417 2.9402 11.4683 2.8902 11.597 2.86087C11.7243 2.8322 11.8587 2.81787 12 2.81787C12.1413 2.81787 12.276 2.8322 12.404 2.86087C12.532 2.8902 12.6583 2.9402 12.783 3.01087L19.667 6.82787C19.9203 6.97254 20.1223 7.16687 20.273 7.41087C20.4243 7.65554 20.5 7.92887 20.5 8.23087V15.7659C20.5 16.0685 20.4243 16.3419 20.273 16.5859C20.1217 16.8299 19.9197 17.0245 19.667 17.1699L12.783 20.9869C12.6583 21.0575 12.5317 21.1075 12.403 21.1369C12.2757 21.1655 12.1413 21.1799 12 21.1799ZM9.196 9.86587C9.576 9.40587 10.0083 9.06354 10.493 8.83887C10.9783 8.61287 11.4807 8.49987 12 8.49987C12.532 8.49987 13.0373 8.61254 13.516 8.83787C13.9953 9.06254 14.4247 9.40487 14.804 9.86487L18.919 7.57487L12.308 3.89587C12.2053 3.8452 12.1027 3.81987 12 3.81987C11.8973 3.81987 11.7947 3.84554 11.692 3.89687L5.081 7.57487L9.196 9.86487V9.86587ZM11.5 19.9959V15.4899C10.6333 15.3339 9.91667 14.9339 9.35 14.2899C8.78333 13.6452 8.5 12.8819 8.5 11.9999C8.5 11.7779 8.518 11.5709 8.554 11.3789C8.59 11.1862 8.64567 10.9829 8.721 10.7689L4.5 8.40387V15.7479C4.5 15.8632 4.52567 15.9659 4.577 16.0559C4.62833 16.1452 4.705 16.2219 4.807 16.2859L11.5 19.9959ZM12 14.4999C12.6913 14.4999 13.2807 14.2559 13.768 13.7679C14.256 13.2805 14.5 12.6912 14.5 11.9999C14.5 11.3085 14.256 10.7192 13.768 10.2319C13.2807 9.74387 12.6913 9.49987 12 9.49987C11.3087 9.49987 10.7193 9.74387 10.232 10.2319C9.744 10.7192 9.5 11.3085 9.5 11.9999C9.5 12.6912 9.744 13.2805 10.232 13.7679C10.7193 14.2559 11.3087 14.4999 12 14.4999ZM12.5 19.9959L19.192 16.2859C19.2947 16.2219 19.3717 16.1452 19.423 16.0559C19.4743 15.9659 19.5 15.8632 19.5 15.7479V8.40387L15.279 10.7689C15.3543 10.9995 15.41 11.2069 15.446 11.3909C15.482 11.5749 15.5 11.7779 15.5 11.9999C15.5 12.8819 15.2167 13.6452 14.65 14.2899C14.0833 14.9339 13.3667 15.3339 12.5 15.4899V19.9959Z"
                                fill="#313131"
                              />
                            </svg>